<svg xmlns="http://www.w3.org/2000/svg" version="1.1" xmlns:xlink="http://www.w3.org/1999/xlink" viewBox="0 0 200 200"><rect width="200" height="200" fill="url('#gradient')"></rect><defs><linearGradient id="gradient" gradientTransform="rotate(45 0.5 0.5)"><stop offset="0%" stop-color="#114cff"></stop><stop offset="100%" stop-color="#a76273"></stop></linearGradient></defs><g><g fill="#ffffff" transform="matrix(4.890421862563014,0,0,4.890421862563014,6.713051797841402,134.7751559196527)" stroke="#0d0b02" stroke-width="0.2"><path d="M9.17-4.81L12.58-4.81Q12.51-3.33 11.78-2.19Q11.04-1.05 9.72-0.43Q8.40 0.20 6.70 0.20L6.70 0.20Q3.90 0.20 2.29-1.63Q0.67-3.46 0.67-6.79L0.67-6.79L0.67-7.49Q0.67-9.58 1.40-11.15Q2.13-12.71 3.50-13.57Q4.86-14.42 6.66-14.42L6.66-14.42Q9.25-14.42 10.82-13.06Q12.39-11.70 12.61-9.31L12.61-9.31L9.19-9.31Q9.15-10.61 8.54-11.17Q7.92-11.74 6.66-11.74L6.66-11.74Q5.38-11.74 4.79-10.78Q4.19-9.82 4.16-7.72L4.16-7.72L4.16-6.72Q4.16-4.44 4.73-3.47Q5.30-2.49 6.70-2.49L6.70-2.49Q7.88-2.49 8.51-3.05Q9.13-3.60 9.17-4.81L9.17-4.81ZM21.53-3.78L21.53-3.78Q21.53-4.53 21.00-4.95Q20.47-5.37 19.13-5.82Q17.79-6.27 16.94-6.69L16.94-6.69Q14.18-8.05 14.18-10.42L14.18-10.42Q14.18-11.60 14.87-12.50Q15.56-13.41 16.82-13.91Q18.08-14.41 19.65-14.41L19.65-14.41Q21.18-14.41 22.40-13.87Q23.61-13.32 24.29-12.31Q24.96-11.30 24.96-10L24.96-10L21.54-10Q21.54-10.87 21.01-11.35Q20.48-11.83 19.57-11.83L19.57-11.83Q18.65-11.83 18.12-11.42Q17.59-11.02 17.59-10.39L17.59-10.39Q17.59-9.84 18.17-9.40Q18.76-8.96 20.23-8.48Q21.71-8.01 22.66-7.46L22.66-7.46Q24.96-6.13 24.96-3.80L24.96-3.80Q24.96-1.93 23.55-0.87Q22.15 0.20 19.70 0.20L19.70 0.20Q17.97 0.20 16.57-0.42Q15.17-1.04 14.46-2.12Q13.75-3.20 13.75-4.61L13.75-4.61L17.19-4.61Q17.19-3.47 17.78-2.92Q18.37-2.38 19.70-2.38L19.70-2.38Q20.55-2.38 21.04-2.75Q21.53-3.12 21.53-3.78ZM34.05-3.78L34.05-3.78Q34.05-4.53 33.52-4.95Q32.99-5.37 31.65-5.82Q30.31-6.27 29.46-6.69L29.46-6.69Q26.70-8.05 26.70-10.42L26.70-10.42Q26.70-11.60 27.39-12.50Q28.08-13.41 29.34-13.91Q30.60-14.41 32.17-14.41L32.17-14.41Q33.70-14.41 34.92-13.87Q36.13-13.32 36.81-12.31Q37.48-11.30 37.48-10L37.48-10L34.06-10Q34.06-10.87 33.53-11.35Q33.00-11.83 32.09-11.83L32.09-11.83Q31.17-11.83 30.64-11.42Q30.11-11.02 30.11-10.39L30.11-10.39Q30.11-9.84 30.69-9.40Q31.28-8.96 32.75-8.48Q34.23-8.01 35.18-7.46L35.18-7.46Q37.48-6.13 37.48-3.80L37.48-3.80Q37.48-1.93 36.07-0.87Q34.67 0.20 32.22 0.20L32.22 0.20Q30.49 0.20 29.09-0.42Q27.69-1.04 26.98-2.12Q26.27-3.20 26.27-4.61L26.27-4.61L29.71-4.61Q29.71-3.47 30.30-2.92Q30.89-2.38 32.22-2.38L32.22-2.38Q33.07-2.38 33.56-2.75Q34.05-3.12 34.05-3.78Z"></path></g></g></svg>